Patient4_TMGait_0pt4_01_right_10_EMG.mot
version=1
nRows=30
nColumns=33
inDegrees=no
endheader
time	1LAddLong	2LGlutMax	3LGlutMed	4LIliopsoas	5LSemiMemb	6LBicFemLong	7LRecFem	8LVastMed	9LVastLat	10LGasMed	11LTibAnt	12lTibPost	13LPeroneusLong	14LSol	15LExtDigLong	16LFlexDigLong	17RAddLong	18RGlutMax	19RGlutMed	20RIliopsoas	21RSemiMemb	22RBicFemLong	23RRecFem	24RVastMed	25RVastLat	26RGasMed	27RTibAnt	28RTibPost	29RPeroneusLong	30RSol	31RExtDigLong	32RFlexDigLong
13.155	-0.00412	0.014496	0.045471	0.007172	0.015106	-0.045013	0.066376	0.005341	0.21942	-0.02655	-0.002747	-0.015717	-0.066833	0.036774	0.001831	-0.024109	0.002594	-1.4446	-0.15595	0.058136	-0.007172	-0.46478	0.060883	-0.10819	0.47363	-0.019226	0.063934	-0.042419	0.40756	-0.41794	-0.001068	-0.02594
13.156	-0.004578	0.006409	0.035858	0.014954	0.003052	-0.04364	0.096588	0.005798	0.22781	-0.036774	0.007019	-0.015106	-0.032501	0.047913	0.015259	-0.023956	0.010529	-1.6364	-0.44968	0.084076	-0.045776	-0.37033	0.24979	0.067444	0.53482	-0.027313	-0.021057	-0.055389	0.11169	-0.52887	-0.003357	-0.028381
13.157	-0.001526	-0.017395	0.037079	0.013428	0.015259	-0.045929	0.091095	0.002594	0.22217	-0.034332	-0.003357	-0.007477	-0.014648	0.054474	0.007172	0.12436	-0.000305	-1.7476	-0.62103	0.045319	-0.000916	-0.36789	0.24643	0.21515	0.48096	-0.015869	-0.048523	-0.038605	0.68756	0.44464	0.000153	-0.020142
13.158	0.002899	-0.029755	0.03479	0.00824	0.012512	-0.049896	0.1387	0.002594	0.21347	-0.024872	-0.01236	-0.008087	-0.047302	0.0177	-0.013123	-0.44495	-0.018463	-1.8375	-0.8139	0.067444	0.01709	-0.27847	0.2066	0.24628	0.34271	-0.015717	0.019531	0.018158	0.37079	0.7399	-0.002289	-0.016479
13.159	0.00473	-0.01297	0.030518	0.011597	0.012665	-0.05127	0.15488	0.015411	0.21713	-0.027313	-0.003052	-0.002441	-0.042725	-0.021515	-0.016785	0.063324	-0.046539	-1.8816	-0.66193	0.070038	-0.007477	-0.11749	0.20218	0.12558	0.15778	-0.013885	0.023193	-0.13901	1.122	0.18784	-0.00351	-0.013275
13.16	-0.004578	0.009766	0.006409	0.013733	0.004883	-0.036316	0.17197	0.051117	0.22415	-0.024109	-0.000916	-0.002289	-0.054016	0.017242	-0.023651	0.05722	-0.023346	-1.857	0.23453	0.007019	-0.40497	-0.011749	0.13657	0.066681	0.055542	-0.015259	0.027771	-0.18295	1.1775	-0.31662	-0.000305	-0.015869
13.161	-0.014648	-0.019684	0.007477	0.007019	0.011749	-0.039825	0.22705	-0.027924	0.21866	-0.022888	0.006256	-0.002136	-0.043945	0.013428	-0.02594	-0.019836	0.007782	-1.9846	-0.16983	0.079651	-0.3244	-0.11475	0.18906	0.16586	-0.19211	-0.006256	-0.027161	-0.056305	1.0025	-0.60928	-0.004425	-0.02182
13.162	-0.011597	-0.018616	-0.018158	0.004425	0.007324	-0.053101	0.28046	0.01236	0.20599	-0.021667	0.01236	-0.000763	-0.03891	-0.009766	-0.028839	-0.005341	0.049744	-2.0567	-0.47592	0.023193	-0.080566	-0.26794	0.22842	0.14664	-0.27161	-0.005798	0.092468	0.1471	0.27023	-0.27084	-0.003967	-0.019073
13.163	-0.022583	-0.013275	-0.034943	0.028229	0.006714	-0.032043	0.37689	0.005188	0.19684	-0.03067	0.024872	-0.004272	-0.048828	0.006104	-0.019684	-0.022583	0.087433	-2.016	-0.75638	-0.06485	0.04425	-0.18814	0.2504	0.072784	-0.23743	0.00412	0.22171	0.10895	-1.2866	0.24735	-0.008698	-0.010834
13.164	-0.00946	-0.016937	-0.042267	0.024567	0.00885	-0.051422	0.44342	0.015106	0.18448	-0.042572	0.015106	0.003662	-0.038605	0.021973	0.000153	-0.044708	0.071411	-1.879	-0.73242	-0.042419	0.037079	0.036316	0.22537	-0.039063	-0.099945	0.009766	0.1474	0.035553	-0.57785	0.2359	-0.002899	-0.012817
13.165	-0.009003	-0.025635	-0.056915	0.009155	0.007172	-0.039063	0.41412	0.018463	0.19592	-0.016327	-0.044098	-0.005188	-0.036316	-0.02121	-0.002747	-0.049896	0.007172	-1.8045	-1.0121	0.06958	-0.21271	0.014954	0.23224	-0.053864	-0.04364	0.010986	-0.10132	0.01358	0.22675	0.16052	-0.002289	-0.010376
13.166	-0.006409	-0.012817	-0.092773	0.001068	0.004578	-0.035248	0.40192	0.00885	0.18753	0.032654	-0.088043	-0.001068	-0.050507	0.003357	-0.010071	-0.032501	-0.072327	-1.6837	-0.36819	0.085754	-0.057526	0.1004	0.26413	0.13336	-0.046387	0.009155	-0.024872	-0.010376	-0.43991	0.023346	-0.002136	-0.010071
13.167	0.000763	0.005951	-0.098114	0.01297	0.000153	-0.04303	0.31189	0.011902	0.21179	0.062714	-0.097351	0.000305	-0.041656	-0.009613	0.014343	-0.043793	-0.083923	-1.5477	-0.75714	0.018158	0.19302	0.22369	0.29114	0.29526	-0.10147	-0.002747	0.024719	-0.00351	0.36041	0.22492	-0.004578	-0.008392
13.168	-0.002747	-0.01236	-0.078888	0.024567	-0.002899	-0.04364	0.31387	0.016174	0.19043	0.05127	-0.1207	-0.001984	-0.0354	-0.048828	0.1506	-0.009308	-0.059509	-1.3666	-0.24612	0.007629	0.13534	0.11978	0.29739	0.25955	-0.11673	-0.004883	0.049438	-0.009155	0.045166	0.17334	-0.002899	-0.01709
13.169	-0.005188	-0.009003	-0.13031	0.015717	0.001678	-0.045013	0.20172	0.014038	0.19394	-0.021057	-0.11169	-0.00885	-0.037384	-0.040741	0.12955	-0.08194	-0.05127	-1.3617	-0.44693	0.003052	-0.20599	0.14847	0.33524	0.19516	-0.087738	-0.005493	-0.019226	-0.016174	-0.43503	0.023499	-0.002899	-0.01709
13.17	-0.008698	0.006866	-0.1358	0.021667	0.00473	-0.037079	0.15778	0.016479	0.18906	-0.005188	0.049133	-0.015564	-0.10056	0.000458	0.27435	-0.11765	-0.019226	-1.1499	0.23636	-0.036926	-0.17059	0.16724	0.33875	0.16571	-0.091248	-0.020752	-0.079346	-0.016022	-0.054321	0.007629	-0.003204	-0.020142
13.171	-0.002136	0.018463	-0.15076	0.003052	0.002441	-0.040283	0.13443	0.014954	0.14587	-0.044708	0.083923	-0.014191	-0.17944	0.064545	0.18372	-0.070496	-0.021667	-0.91614	0.42557	-0.10544	0.34973	0.055542	0.079193	0.16983	0.029297	-0.034332	0.056152	-0.02243	-0.23834	0.11444	-0.004578	-0.018921
13.172	-0.008087	-0.005188	-0.16647	-0.008545	0.003967	-0.047455	0.017853	0.013885	0.14923	-0.042114	0.17105	-0.014801	-0.13245	0.15213	0.40176	0.1471	-0.045471	-0.75058	0.11231	-0.031586	0.15656	-0.002441	0.045319	0.055542	0.063934	-0.029297	0.094452	-0.013275	-0.93445	0.1416	-0.00061	-0.019684
13.173	-0.004425	-0.027008	-0.16052	0.005035	0.010681	-0.055542	-0.070496	0.021515	0.13092	-0.058289	0.47791	-0.007172	-0.076904	0.20355	0.89508	-0.056458	-0.046539	-0.63446	0.058899	-0.001678	0.01709	-0.050354	0.04776	-0.16525	0.014496	0.008392	0.065308	-0.025787	-0.6163	0.023651	-0.001984	-0.015564
13.174	0	-0.027161	-0.15671	0.011444	0.013885	-0.050354	-0.085144	0.022736	0.12894	-0.083008	0.62347	-0.006561	0.063934	0.24857	-0.26794	-0.054626	-0.024567	-0.45273	-0.40451	-0.099792	-0.11765	-0.13611	-0.000153	-0.14603	-0.050812	0.007629	0.021667	-0.019531	0.11627	-0.19898	-0.001221	-0.023804
13.175	-0.001068	-0.016022	-0.16251	0.011902	0.012817	-0.048981	-0.12665	0.013123	0.14297	-0.084229	0.46707	-0.00473	0.10819	0.17548	-0.39551	-0.034332	0.011597	-0.2652	-0.39566	-0.12024	0.018463	-0.1799	-0.2002	-0.22308	0.012207	0.022583	0.020294	0.004883	0.51529	-0.18433	-0.001373	-0.019836
13.176	-0.001221	-0.029907	-0.16068	-0.002747	0.010529	-0.035095	-0.1857	0.026855	0.1445	-0.083008	0.17151	-0.002594	0.042725	0.08667	-0.18723	-0.022888	0.050964	-0.21942	-0.36713	-0.17319	0.028229	-0.20355	-0.35629	-0.27222	0.25879	-0.010681	0.01297	-0.002289	0.050201	-0.079346	-0.001373	-0.013275
13.177	0.004272	0.016785	-0.15625	0.003967	0.006561	-0.046234	-0.36606	0.027466	0.13641	-0.063782	-0.40451	-0.005798	0.080719	0.022278	-0.045776	-0.038147	0.046387	-0.090942	0.23621	-0.13153	0.094299	-0.1886	-0.47348	-0.079956	0.64651	0.04715	0.023651	-0.032196	-0.013885	0.0354	-0.003357	-0.005188
13.178	0.006256	0.017548	-0.15778	0.007172	0.006409	-0.013733	-0.54733	0.018921	0.14526	-0.018921	-0.35126	0.001984	0.02655	0.027771	-0.80872	-0.037994	-0.000305	0.035553	-0.37262	-0.074158	-0.25635	-0.10742	-0.46188	-0.006256	0.54275	0.09079	0.050507	-0.011597	-0.050201	-0.037994	-0.00412	-0.008545
13.179	0.012054	-0.009918	-0.13962	0.012512	0.00946	-0.048676	-0.5249	0.007324	0.17807	0.005341	-0.30914	0.000305	-0.027008	0.10574	-0.2385	-0.032043	-0.010071	0.14343	-0.793	-0.088043	-0.233	-0.11841	-0.36377	-0.085449	0.2562	0.062408	0.032501	-0.059204	-0.15381	0.0354	0.004425	-0.010071
13.18	0.000916	-0.00061	-0.13351	0.04776	0.005341	-0.028381	-0.3186	0.001221	0.17654	0.007324	-0.22751	0.001678	-0.038605	0.036163	0.07843	-0.028534	-0.018921	0.26199	0.16815	-0.010986	-0.034637	-0.14328	-0.13275	-0.11627	0.12756	-0.067749	0.055389	-0.37949	0.093231	0.019684	-0.005035	-0.00061
13.181	0.00412	-0.034943	-0.17029	0.040436	0.007629	-0.031433	-0.16754	-0.00061	0.15945	0.005188	-0.16968	0.011749	0.004883	-0.05249	-0.2243	-0.027008	-0.018768	0.27969	-0.1387	0.16022	0.071564	-0.15015	-0.047913	-0.068359	-0.10498	-0.056305	0.041199	0.16556	0.23514	-0.067444	-0.001373	-0.010376
13.182	0.00351	-0.043182	-0.15625	0.027466	0.010986	-0.030212	-0.13748	-0.001831	0.14954	0.00885	-0.048828	0.010071	-0.000916	-0.060272	-0.18616	-0.031281	0.003052	0.22461	-0.24002	0.26504	0.022278	-0.12207	-0.025177	-0.063171	-0.28458	0.018921	0.036469	0.18158	0.4068	-0.11597	-0.001678	-0.019836
13.183	0.001831	-0.046082	-0.15671	0.005646	0.012207	-0.033722	-0.07019	0.007324	0.13016	0.030975	0.071716	0.007324	-0.007935	-0.12665	-0.92209	-0.027161	-0.010223	0.21698	-0.42831	0.21027	0.031281	-0.051575	-0.049591	-0.13412	-0.53604	0.020447	0.037537	0.052795	0.41031	0.043488	-0.004425	-0.020752
13.184	-0.003662	-0.053253	-0.15488	-0.000763	0.004272	-0.022888	-0.065155	0.005951	0.12528	0.029449	0.12848	0.012817	-0.0354	-0.22018	-0.81955	-0.036926	-0.020905	0.19409	-0.4837	0.11765	0.006256	0.09552	-0.10635	-0.032959	-0.52445	0.006256	0.062256	0.015259	0.19745	-0.32852	0.001373	-0.021667
